<svg viewBox="0 0 640 400" data-background-color="#ffffff" preserveAspectRatio="xMidYMid meet" height="400" width="640" xmlns="http://www.w3.org/2000/svg" xmlns:xlink="http://www.w3.org/1999/xlink"><rect width="640" height="400" x="0" y="0" opacity="1" fill="#ffffff" data-fill-palette-color="background" id="background"></rect><g id="tight-bounds" transform="matrix(1,0,0,1,160,20)"><svg viewBox="0 0 320 360" height="360" width="320"><g><svg></svg></g><g><svg viewBox="0 0 320 360" height="360" width="320"><g><path d="M20.961 227.22l3.726 4.658-1.863-6.056c-0.466-2.795-3.726 0.466-1.863 1.398M25.153 224.425c1.397 2.329 2.795 4.658 2.795 6.987 0 3.261 2.795 4.658 5.123 5.589-3.261-3.726-5.124-13.974-7.918-12.576M204.017 26.929c7.918 0 15.371-0.932 23.756 0.931 20.495 5.124 37.729 15.371 49.374 29.811l32.606 52.169c1.397 13.042 4.192 27.482 3.726 43.319 3.261 0 2.795-4.658 6.521-5.59-3.726 9.316-5.59 20.961-6.521 34.469-2.329-7.453 0-18.632 0.466-24.687-3.261 5.124-5.124 1.397-5.124-0.932 0.466-3.726-1.397-3.261-2.795-4.658-5.124-4.658-8.384-9.782-12.11-17.7 2.329-6.055 2.795-14.905-4.658-19.563-2.329-1.397-5.124-3.726-6.521-7.453-1.863-5.124-5.124-11.179-4.193-19.097 0.466-2.329-6.987 5.124-11.179 1.863-18.166-12.576-36.332-27.016-58.224-39.127-11.645 0-20.029-4.192-24.221-9.316-3.726-4.658-0.932-10.713 4.658-11.179 3.261 0 6.987-0.932 9.782 0.932 0.466-1.863 2.329-4.192 4.657-4.192M157.904 16.215l0.932 0.466c4.658 0.932 6.987 7.453 12.11 5.124 0 3.261 0.466 6.521-0.466 8.85-1.397 3.726-5.59 3.726-8.85 3.726-31.208-1.863-49.374 11.179-68.471 22.358-5.124 3.261-10.713 5.59-14.906 9.782-20.029 18.632-41.921 35.866-47.045 70.335l-4.192 38.195c-0.466 4.192-5.124 8.384-4.192 13.508l3.26 22.824c-3.261-3.261-5.124 0.932-4.192 2.795 0.466 1.397 2.329 6.055 5.124 1.863 3.726 6.987 7.453 20.495 12.576 26.55 15.837 18.632 36.332 35.4 53.101 52.169 4.192-0.932 7.453-0.932 8.384-3.727 1.397 2.795-1.397 5.59-3.726 6.056 7.453 4.658 15.837 8.85 27.016 9.781 14.44 0.932 27.948 3.261 40.524 6.522 6.521-1.863 13.042-2.795 20.029-3.261 2.329 0 3.726-3.726 6.521-4.658l0.466-4.658c2.795 4.192 2.329-1.397 0.466-4.192 3.261 2.795 4.192 5.124 5.589 6.987 0-1.397 3.726-6.521 3.727-0.466l0.931-6.055c1.397-0.932 1.863 5.124 3.261 0.931 1.397-4.192 4.192-0.932 6.987-2.329-0.932 1.863-0.466 5.59 2.794 3.261l3.727-3.261c2.329 5.59 6.055 3.261 7.918 2.329 20.495-13.042 40.99-28.413 60.553-43.784l-0.466 6.055 2.329-7.453c2.329 2.329 4.192 0.466 5.124-0.931 2.795-4.658 6.521-9.316 12.577-13.508-7.453 20.029-16.303 35.866-27.482 48.908l-4.658 5.59c0 3.261-0.932 7.453-4.658 7.918-1.863 0.466-5.59-0.932-8.384 1.863-1.397 1.863 3.261 5.59-0.466 2.795-3.261-2.329-6.521 0-10.248 0.932-2.795 0.932 1.863 3.726 2.795 5.589 0.932 1.863 1.863 3.726 1.398 6.056l-5.124-5.59c-6.055 3.261-9.782 9.316-14.906 13.974-2.329 1.863-1.397 5.124-1.397 7.918-3.261 0-6.987-0.932-8.85 0.932-1.397 1.863-0.932 4.658-0.932 7.453-4.658-0.466-5.124-7.453-9.315-6.056-4.192 0.932-8.85 1.397-12.577 3.727 2.795 5.59-4.658 2.329-3.726 3.26-6.987-4.192-13.042-7.453-20.495-4.658-15.837-5.124-35.4-2.795-49.84-0.931 0-2.329 0.466-4.658-0.466-5.124-0.932 2.329-3.726 1.397-3.26 1.397-8.85-6.055-17.7-9.782-27.016-14.905-8.384 0.932-16.303-3.261-18.632-5.59-6.521-6.055-13.974-2.795-20.029-4.192-13.042-3.261-17.7-16.769-19.098-26.084-0.932-4.658-4.658-6.521-6.055-6.056-6.055-19.563-15.371-37.263-22.824-55.429-1.863-4.658-1.397-9.316-1.397-14.44 2.329 0.932 4.658 0.466 4.192-2.794-2.329-15.371-7.918-27.016-13.974-38.195 3.261-15.837 3.726-34.469 11.179-48.443 6.521-12.576 18.632-19.098 27.016-29.811 2.795-3.726 2.795-8.85 5.59-12.11 9.316-9.316 18.632-19.098 28.879-27.482 4.658-3.726 10.247 0 17.234-1.397 2.329-8.384 11.645-15.837 20.495-13.508 3.726 0.932 11.179-8.85 13.508-9.782 3.726-1.397 1.863 3.726 1.863 6.987 8.85-6.987 20.961-10.713 32.14-14.906" fill="#2a2828" data-fill-palette-color="tertiary"></path></g><g transform="matrix(1,0,0,1,64,117.41031560677965)"><svg viewBox="0 0 192 125.1793687864407" height="125.1793687864407" width="192"><g><svg viewBox="0 0 192 125.1793687864407" height="125.1793687864407" width="192"><g><svg viewBox="0 0 192 125.1793687864407" height="125.1793687864407" width="192"><g transform="matrix(1,0,0,1,0,75.66072471864409)"><svg viewBox="0 0 192 49.518644067796615" height="49.518644067796615" width="192"><g><svg viewBox="0 0 192 49.518644067796615" height="49.518644067796615" width="192"><g><svg viewBox="0 0 192 49.518644067796615" height="49.518644067796615" width="192"><g transform="matrix(1,0,0,1,0,0)"><svg width="192" viewBox="0 -29.5 176.99000549316406 45.650001525878906" height="49.518644067796615" data-palette-color="#000000"><path d="M4.5 0L0 0 0-29.5 4.5-29.5 4.5 0ZM7.5 0L6 0 6-29.5 7.5-29.5 7.5 0ZM13.5 0L9 0 9-29.5 13.5-29.5 13.5 0ZM16.5 0L15 0 15-29.5 16.5-29.5 16.5 0ZM24 0L22.5 0 22.5-29.5 24-29.5 24 0ZM12.75 16.15L12.75 16.15Q10.75 16.15 9.7 14.6L9.7 14.6Q8.6 13.05 8.6 10.2L8.6 10.2Q8.6 7.45 9.7 5.85L9.7 5.85Q10.8 4.3 12.75 4.3L12.75 4.3Q14.7 4.3 15.8 5.85L15.8 5.85Q16.9 7.45 16.9 10.2L16.9 10.2Q16.9 13.05 15.8 14.6L15.8 14.6Q14.75 16.15 12.75 16.15ZM12.75 15L12.75 15Q14.1 15 14.8 13.8L14.8 13.8Q15.55 12.55 15.55 10.2L15.55 10.2Q15.55 8 14.8 6.7L14.8 6.7Q14.05 5.45 12.75 5.45L12.75 5.45Q11.45 5.45 10.7 6.7L10.7 6.7Q9.95 8 9.95 10.2L9.95 10.2Q9.95 12.55 10.65 13.8L10.65 13.8Q11.4 15 12.75 15ZM30 0L25.5 0 25.5-29.5 30-29.5 30 0ZM33 0L31.5 0 31.5-29.5 33-29.5 33 0ZM36 0L34.5 0 34.5-29.5 36-29.5 36 0ZM42 0L37.5 0 37.5-29.5 42-29.5 42 0ZM49.5 0L48 0 48-29.5 49.5-29.5 49.5 0ZM34.65 15.95L34.65 4.35 38.05 4.35Q40.05 4.35 40.95 5.25L40.95 5.25Q41.9 6.1 41.9 7.7L41.9 7.7Q41.9 8.7 41.25 9.6L41.25 9.6Q40.6 10.5 39.55 10.8L39.55 10.8 42.25 15.95 40.8 15.95 38.2 10.85 35.95 10.85 35.95 15.95 34.65 15.95ZM35.95 9.7L38.2 9.7Q39.4 9.7 40 9.15L40 9.15Q40.55 8.65 40.55 7.7L40.55 7.7Q40.55 6.75 40 6.15L40 6.15Q39.4 5.6 38.2 5.6L38.2 5.6 35.95 5.6 35.95 9.7ZM52.5 0L51 0 51-29.5 52.5-29.5 52.5 0ZM63 0L58.5 0 58.5-29.5 63-29.5 63 0ZM69 0L64.5 0 64.5-29.5 69-29.5 69 0ZM72 0L70.5 0 70.5-29.5 72-29.5 72 0ZM75 0L73.5 0 73.5-29.5 75-29.5 75 0ZM60.05 15.95L60.05 15.05 65.84 5.55 60.25 5.55 60.25 4.35 67.4 4.35 67.4 5.3 61.65 14.8 66.9 14.8Q67.2 14.8 67.34 14.75L67.34 14.75Q67.45 14.7 67.59 14.6L67.59 14.6 67.7 14.6 67.7 15.95 60.05 15.95ZM80.99 0L76.49 0 76.49-29.5 80.99-29.5 80.99 0ZM88.49 0L86.99 0 86.99-29.5 88.49-29.5 88.49 0ZM91.49 0L89.99 0 89.99-29.5 91.49-29.5 91.49 0ZM94.49 0L92.99 0 92.99-29.5 94.49-29.5 94.49 0ZM100.49 0L95.99 0 95.99-29.5 100.49-29.5 100.49 0ZM89.24 16.15L89.24 16.15Q87.44 16.15 86.49 15.05L86.49 15.05Q85.54 13.95 85.54 11.95L85.54 11.95 85.54 4.35 86.99 4.35 86.99 4.5Q86.84 4.6 86.84 4.75L86.84 4.75Q86.79 4.85 86.79 5.2L86.79 5.2 86.79 11.95Q86.79 13.45 87.39 14.25L87.39 14.25Q87.94 15.05 89.29 15.05L89.29 15.05Q90.59 15.05 91.19 14.25L91.19 14.25Q91.79 13.45 91.79 11.9L91.79 11.9 91.79 4.35 93.04 4.35 93.04 11.9Q93.04 14.05 92.04 15.1L92.04 15.1Q91.04 16.15 89.24 16.15ZM103.49 0L101.99 0 101.99-29.5 103.49-29.5 103.49 0ZM109.49 0L104.99 0 104.99-29.5 109.49-29.5 109.49 0ZM112.49 0L110.99 0 110.99-29.5 112.49-29.5 112.49 0ZM119.99 0L118.49 0 118.49-29.5 119.99-29.5 119.99 0ZM125.99 0L121.49 0 121.49-29.5 125.99-29.5 125.99 0ZM110.99 15.95L110.99 4.35 114.29 4.35Q116.19 4.35 117.14 5.1L117.14 5.1Q118.14 5.85 118.14 7.2L118.14 7.2Q118.14 8.05 117.69 8.75L117.69 8.75Q117.19 9.45 116.39 9.75L116.39 9.75Q117.39 10.1 117.99 10.9L117.99 10.9Q118.59 11.75 118.59 12.7L118.59 12.7Q118.59 14.2 117.49 15.1L117.49 15.1Q116.44 15.95 114.24 15.95L114.24 15.95 110.99 15.95ZM112.24 9.15L114.09 9.15Q116.84 9.15 116.84 7.3L116.84 7.3Q116.84 6.5 116.19 6L116.19 6Q115.59 5.45 114.29 5.45L114.29 5.45 112.24 5.45 112.24 9.15ZM112.24 14.8L114.49 14.8Q117.19 14.8 117.19 12.6L117.19 12.6Q117.19 10.25 114.14 10.25L114.14 10.25 112.24 10.25 112.24 14.8ZM131.99 0L127.49 0 127.49-29.5 131.99-29.5 131.99 0ZM134.99 0L133.49 0 133.49-29.5 134.99-29.5 134.99 0ZM140.99 0L136.49 0 136.49-29.5 140.99-29.5 140.99 0ZM148.49 0L146.99 0 146.99-29.5 148.49-29.5 148.49 0ZM151.49 0L149.99 0 149.99-29.5 151.49-29.5 151.49 0ZM136.69 15.95L136.69 4.35 143.79 4.35 143.79 5.5 137.89 5.5 137.89 9.3 142.79 9.3 142.79 10.5 137.89 10.5 137.89 14.8 143.74 14.8 143.74 15.95 136.69 15.95ZM157.49 0L152.99 0 152.99-29.5 157.49-29.5 157.49 0ZM160.49 0L158.99 0 158.99-29.5 160.49-29.5 160.49 0ZM163.49 0L161.99 0 161.99-29.5 163.49-29.5 163.49 0ZM166.49 0L164.99 0 164.99-29.5 166.49-29.5 166.49 0ZM176.99 0L172.49 0 172.49-29.5 176.99-29.5 176.99 0ZM168.19 16L164.19 10.15 163.24 11.15 163.24 15.95 161.89 15.95 161.89 4.35 163.44 4.35 163.44 4.5Q163.34 4.6 163.29 4.75L163.29 4.75Q163.24 4.85 163.24 5.2L163.24 5.2 163.24 9.7 168.09 4.3Q168.54 4.35 169.04 4.35L169.04 4.35 169.54 4.35 165.14 9.35 169.84 15.95 168.19 16Z" opacity="1" transform="matrix(1,0,0,1,0,0)" fill="#000000" class="undefined-text-0" data-fill-palette-color="primary" id="text-0"></path></svg></g></svg></g></svg></g></svg></g><g transform="matrix(1,0,0,1,63.99386929996837,0)"><svg viewBox="0 0 64.01226140006327 68.43476610169493" height="68.43476610169493" width="64.01226140006327"><g><svg xmlns="http://www.w3.org/2000/svg" viewBox="9.923011779785156 6.761407852172852 80.01078033447266 85.5385971069336" style="enable-background:new 0 0 100 100" xml:space="preserve" x="0" y="0" height="68.43476610169493" width="64.01226140006327" class="icon-icon-0" data-fill-palette-color="accent" id="icon-0"><path d="M54.6 92.3c-1.1 0-2.2-0.1-3.4-0.3-5.8-0.9-11-4.3-14.2-9.3L13.3 46c-3.7-5.7-4.4-12.7-1.9-19 2.5-6.4 7.7-11 14.4-12.7l27.5-6.9c10.6-2.7 21.6 3.4 25 13.8l10.6 32.3c2.7 8.3 0 17.5-6.8 22.9L67.7 87.7c-3.7 3-8.4 4.6-13.1 4.6z m3.7-79.6c-1.2 0-2.4 0.1-3.6 0.5l-27.5 6.9c-4.7 1.2-8.5 4.5-10.3 9s-1.3 9.5 1.4 13.6l23.8 36.7c2.3 3.5 6 5.9 10.1 6.6 4.2 0.7 8.4-0.4 11.7-3.1l1.9 2.3L64 83l14.3-11.4c4.9-3.9 6.8-10.5 4.9-16.4L72.5 23c-2-6.2-7.9-10.3-14.2-10.3z" fill="#f36527" data-fill-palette-color="accent"></path></svg></g></svg></g><g></g></svg></g></svg></g></svg></g></svg></g></svg><rect width="320" height="360" fill="none" stroke="none" visibility="hidden"></rect></g><defs></defs></svg>